<?xml version="1.0" encoding="utf-8"?>
<!-- Generator: Adobe Illustrator 16.0.3, SVG Export Plug-In . SVG Version: 6.00 Build 0)  -->
<!DOCTYPE svg PUBLIC "-//W3C//DTD SVG 1.1//EN" "http://www.w3.org/Graphics/SVG/1.1/DTD/svg11.dtd">
<svg version="1.1" id="Layer_1" xmlns="http://www.w3.org/2000/svg" xmlns:xlink="http://www.w3.org/1999/xlink" x="0px" y="0px"
	 width="1000px" height="1000px" viewBox="0 0 1000 1000" enable-background="new 0 0 1000 1000" xml:space="preserve">
<g>
	<path display="none" fill-rule="evenodd" clip-rule="evenodd" d="M848.438,422.03c-18.869-6.917-36.547-13.549-54.345-19.843
		c-7.146-2.526-4.903-7.818-4.086-12.408c6.419-36.021,5.553-72.096-1.857-107.644C765.456,173.288,698.685,104.9,591.551,79.14
		c-94.613-22.748-181.113-2.535-253.983,64.016c-44.052,40.229-65.443,92.369-73.95,150.804
		c-5.561,38.194,0.536,74.566,11.677,110.796c6.705,21.803-5.891,41.229-27,43.096c-14.054,1.241-24.481-5.703-29.169-20.009
		c-49.049-149.67,17.676-333.891,196.795-392.609c90.66-29.722,180.596-26.429,267.135,14.77
		c82.674,39.357,136.232,104.45,160.073,193.192c14.79,55.043,13.801,110.999,8.187,167.104
		C850.961,413.777,849.658,417.16,848.438,422.03z"/>
	<path fill-rule="evenodd" clip-rule="evenodd" d="M510.395,663.951c-29.241-57.753-83.287-68.763-125.391-57.226
		c-41.122,11.272-68.562,49.895-68.889,96.547c-0.33,46.957,26.66,84.708,70.718,97.077c25.943,7.281,51.692,5.545,76.01-7.17
		c24.146-12.613,39.918-32.7,50.163-59.126c11.794,15.813,22.929,30.158,33.197,45.101c1.672,2.431,0.743,8.189-1.025,11.224
		c-19.083,32.692-48.403,52.441-84.274,61.413c-57.791,14.446-111.953,6.879-156.861-35.229
		c-45.487-42.652-58.277-111.711-34.329-173.411c21.967-56.598,74.511-92.231,138.492-94.237
		c46.389-1.455,87.606,10.904,120.693,44.837c17.124,17.564,16.852,17.783,3.131,37.944
		C525.03,641.987,518.154,652.371,510.395,663.951z"/>
	<path fill-rule="evenodd" clip-rule="evenodd" d="M706.615,545.085c-12.636,18.56-24.134,35.615-35.803,52.548
		c-20.254,29.399-40.36,58.909-61.139,87.941c-4.685,6.546-3.823,10.692,0.333,16.676
		c62.161,89.411,124.118,178.971,186.105,268.502c1.954,2.82,3.718,5.779,7.19,11.2c-24.277,0-46.281,0.171-68.271-0.239
		c-2.436-0.046-5.505-2.938-7.115-5.304c-62.396-91.847-124.706-183.756-186.694-275.882c-1.891-2.812-1.898-9.165,0.017-11.916
		c31.819-45.718,63.984-91.194,96.456-136.452c2.457-3.423,7.739-6.592,11.836-6.762
		C667.708,544.673,685.934,545.085,706.615,545.085z"/>
	<path fill-rule="evenodd" clip-rule="evenodd" d="M824.734,852.874c-19.175,0-39.37,0-61.61,0c0-102.435,0-204.761,0-307.972
		c19.042,0,39.174,0,61.61,0C824.734,647.444,824.734,749.771,824.734,852.874z"/>
	<path fill-rule="evenodd" clip-rule="evenodd" d="M204.076,559.783c0.872,12.685-0.167,24.764-12.417,32.095
		c-18.063,10.81-39.916-0.922-42.698-22.658c-2.307-18.021-3.328-36.337-7.354-53.964c-3.053-13.351-9.515-26.019-15.266-38.626
		c-4.108-9.006-7.513-17.582-4.247-27.695c3.876-11.998,13-21.049,23.888-21.792c11.712-0.798,19.538,5.697,25.055,15.277
		C191.967,478.754,202.033,518.174,204.076,559.783z"/>
	<path fill-rule="evenodd" clip-rule="evenodd" d="M780.146,419.789c19.337,7.289,37.657,13.891,55.631,21.324
		c2.489,1.03,5.117,6.55,4.562,9.376c-4.52,22.895-9.619,45.683-15.061,68.382c-0.584,2.438-4.436,5.771-6.841,5.836
		c-19.177,0.479-38.374,0.269-58.955,0.269C758.391,488.354,766.072,454.314,780.146,419.789z M783.071,426.989
		c-11.875,29.232-19.414,58.642-16.81,90.281c17.04,0,33.051,0.25,49.039-0.29c2.241-0.075,5.676-3.714,6.308-6.255
		c4.509-18.22,7.931-36.717,12.813-54.823c1.889-6.997,0.174-9.387-6.05-11.602C813.648,439.064,799.152,433.184,783.071,426.989z"
		/>
	<path display="none" fill-rule="evenodd" clip-rule="evenodd" fill="#EC1C24" d="M783.071,426.989
		c16.081,6.194,30.577,12.075,45.299,17.312c6.224,2.215,7.938,4.604,6.05,11.602c-4.882,18.106-8.304,36.604-12.813,54.823
		c-0.632,2.541-4.067,6.18-6.308,6.255c-15.987,0.54-31.999,0.29-49.039,0.29C763.657,485.631,771.196,456.222,783.071,426.989z"/>
</g>
</svg>
